HIERARCHY
ROOT Hips
{
	OFFSET	0.00	0.00	0.00
	CHANNELS 6 Xposition Yposition Zposition Zrotation Xrotation Yrotation
	JOINT Spine
	{
		OFFSET	 0.000000	-0.009727	 0.052128
		CHANNELS 3 Zrotation Xrotation Yrotation
		JOINT Chest
		{
			OFFSET	 0.000000	-0.014510	 0.110886
			CHANNELS 3 Zrotation Xrotation Yrotation
			JOINT UpperChest
			{
				OFFSET	-0.000000	 0.013313	 0.124285
				CHANNELS 3 Zrotation Xrotation Yrotation
				JOINT Neck
				{
					OFFSET	-0.000000	 0.033396	 0.114615
					CHANNELS 3 Zrotation Xrotation Yrotation
					JOINT Head
					{
						OFFSET	 0.000000	-0.009335	 0.073770
						CHANNELS 3 Zrotation Xrotation Yrotation
						JOINT LeftEye
						{
							OFFSET	 0.020036	-0.028383	 0.059252
							CHANNELS 3 Zrotation Xrotation Yrotation
							End Site
							{
								OFFSET	 0.020036	-0.028383	 0.059252
							}
						}
						JOINT RightEye
						{
							OFFSET	-0.020036	-0.028383	 0.059252
							CHANNELS 3 Zrotation Xrotation Yrotation
							End Site
							{
								OFFSET	-0.020036	-0.028383	 0.059252
							}
						}
					}
				}
				JOINT LeftShoulder
				{
					OFFSET	 0.022386	 0.027443	 0.087264
					CHANNELS 3 Zrotation Xrotation Yrotation
					JOINT LeftUpperArm
					{
						OFFSET	 0.086295	-0.005364	-0.014869
						CHANNELS 3 Zrotation Xrotation Yrotation
						JOINT LeftLowerArm
						{
							OFFSET	 0.210165	-0.001763	-0.009786
							CHANNELS 3 Zrotation Xrotation Yrotation
							JOINT LeftHand
							{
								OFFSET	 0.204753	-0.016902	-0.000446
								CHANNELS 3 Zrotation Xrotation Yrotation
								JOINT LeftIndexProximal
								{
									OFFSET	 0.063906	-0.021442	 0.005562
									CHANNELS 3 Zrotation Xrotation Yrotation
									JOINT LeftIndexIntermediate
									{
										OFFSET	 0.032821	-0.005149	-0.000134
										CHANNELS 3 Zrotation Xrotation Yrotation
										JOINT LeftIndexDistal
										{
											OFFSET	 0.020314	-0.002301	-0.000673
											CHANNELS 3 Zrotation Xrotation Yrotation
											End Site
											{
												OFFSET	 0.020314	-0.002301	-0.000673
											}
										}
									}
								}
								JOINT LeftLittleProximal
								{
									OFFSET	 0.063261	 0.026794	 0.003125
									CHANNELS 3 Zrotation Xrotation Yrotation
									JOINT LeftLittleIntermediate
									{
										OFFSET	 0.031398	-0.000022	-0.000273
										CHANNELS 3 Zrotation Xrotation Yrotation
										JOINT LeftLittleDistal
										{
											OFFSET	 0.018059	 0.000943	 0.000679
											CHANNELS 3 Zrotation Xrotation Yrotation
											End Site
											{
												OFFSET	 0.018059	 0.000943	 0.000679
											}
										}
									}
								}
								JOINT LeftMiddleProximal
								{
									OFFSET	 0.066112	-0.004780	 0.008373
									CHANNELS 3 Zrotation Xrotation Yrotation
									JOINT LeftMiddleIntermediate
									{
										OFFSET	 0.036901	-0.002438	-0.001349
										CHANNELS 3 Zrotation Xrotation Yrotation
										JOINT LeftMiddleDistal
										{
											OFFSET	 0.022683	-0.000937	-0.002406
											CHANNELS 3 Zrotation Xrotation Yrotation
											End Site
											{
												OFFSET	 0.022683	-0.000937	-0.002406
											}
										}
									}
								}
								JOINT LeftRingProximal
								{
									OFFSET	 0.066681	 0.010961	 0.008306
									CHANNELS 3 Zrotation Xrotation Yrotation
									JOINT LeftRingIntermediate
									{
										OFFSET	 0.034323	-0.000172	-0.000538
										CHANNELS 3 Zrotation Xrotation Yrotation
										JOINT LeftRingDistal
										{
											OFFSET	 0.019796	-0.000249	 0.000700
											CHANNELS 3 Zrotation Xrotation Yrotation
											End Site
											{
												OFFSET	 0.019796	-0.000249	 0.000700
											}
										}
									}
								}
								JOINT LeftThumbProximal
								{
									OFFSET	 0.002032	-0.017734	-0.006912
									CHANNELS 3 Zrotation Xrotation Yrotation
									JOINT LeftThumbIntermediate
									{
										OFFSET	 0.032287	-0.033401	-0.002701
										CHANNELS 3 Zrotation Xrotation Yrotation
										JOINT LeftThumbDistal
										{
											OFFSET	 0.021324	-0.019035	-0.001512
											CHANNELS 3 Zrotation Xrotation Yrotation
											End Site
											{
												OFFSET	 0.021324	-0.019035	-0.001512
											}
										}
									}
								}
							}
						}
					}
				}
				JOINT RightShoulder
				{
					OFFSET	-0.022386	 0.027443	 0.087267
					CHANNELS 3 Zrotation Xrotation Yrotation
					JOINT RightUpperArm
					{
						OFFSET	-0.086294	-0.005364	-0.014870
						CHANNELS 3 Zrotation Xrotation Yrotation
						JOINT RightLowerArm
						{
							OFFSET	-0.210167	-0.001763	-0.009788
							CHANNELS 3 Zrotation Xrotation Yrotation
							JOINT RightHand
							{
								OFFSET	-0.204752	-0.016902	-0.000445
								CHANNELS 3 Zrotation Xrotation Yrotation
								JOINT RightIndexProximal
								{
									OFFSET	-0.063906	-0.021442	 0.005562
									CHANNELS 3 Zrotation Xrotation Yrotation
									JOINT RightIndexIntermediate
									{
										OFFSET	-0.032821	-0.005149	-0.000134
										CHANNELS 3 Zrotation Xrotation Yrotation
										JOINT RightIndexDistal
										{
											OFFSET	-0.020313	-0.002302	-0.000674
											CHANNELS 3 Zrotation Xrotation Yrotation
											End Site
											{
												OFFSET	-0.020313	-0.002302	-0.000674
											}
										}
									}
								}
								JOINT RightLittleProximal
								{
									OFFSET	-0.063261	 0.026793	 0.003125
									CHANNELS 3 Zrotation Xrotation Yrotation
									JOINT RightLittleIntermediate
									{
										OFFSET	-0.031398	-0.000023	-0.000273
										CHANNELS 3 Zrotation Xrotation Yrotation
										JOINT RightLittleDistal
										{
											OFFSET	-0.018059	 0.000943	 0.000679
											CHANNELS 3 Zrotation Xrotation Yrotation
											End Site
											{
												OFFSET	-0.018059	 0.000943	 0.000679
											}
										}
									}
								}
								JOINT RightMiddleProximal
								{
									OFFSET	-0.066112	-0.004780	 0.008373
									CHANNELS 3 Zrotation Xrotation Yrotation
									JOINT RightMiddleIntermediate
									{
										OFFSET	-0.036901	-0.002438	-0.001349
										CHANNELS 3 Zrotation Xrotation Yrotation
										JOINT RightMiddleDistal
										{
											OFFSET	-0.022683	-0.000937	-0.002405
											CHANNELS 3 Zrotation Xrotation Yrotation
											End Site
											{
												OFFSET	-0.022683	-0.000937	-0.002405
											}
										}
									}
								}
								JOINT RightRingProximal
								{
									OFFSET	-0.066681	 0.010961	 0.008306
									CHANNELS 3 Zrotation Xrotation Yrotation
									JOINT RightRingIntermediate
									{
										OFFSET	-0.034323	-0.000173	-0.000538
										CHANNELS 3 Zrotation Xrotation Yrotation
										JOINT RightRingDistal
										{
											OFFSET	-0.019796	-0.000249	 0.000700
											CHANNELS 3 Zrotation Xrotation Yrotation
											End Site
											{
												OFFSET	-0.019796	-0.000249	 0.000700
											}
										}
									}
								}
								JOINT RightThumbProximal
								{
									OFFSET	-0.002032	-0.017734	-0.006912
									CHANNELS 3 Zrotation Xrotation Yrotation
									JOINT RightThumbIntermediate
									{
										OFFSET	-0.032277	-0.033413	-0.002678
										CHANNELS 3 Zrotation Xrotation Yrotation
										JOINT RightThumbDistal
										{
											OFFSET	-0.021320	-0.019041	-0.001499
											CHANNELS 3 Zrotation Xrotation Yrotation
											End Site
											{
												OFFSET	-0.021320	-0.019041	-0.001499
											}
										}
									}
								}
							}
						}
					}
				}
			}
		}
	}
	JOINT LeftUpperLeg
	{
		OFFSET	 0.077122	 0.004909	-0.039702
		CHANNELS 3 Zrotation Xrotation Yrotation
		JOINT LeftLowerLeg
		{
			OFFSET	-0.019635	 0.006635	-0.342479
			CHANNELS 3 Zrotation Xrotation Yrotation
			JOINT LeftFoot
			{
				OFFSET	-0.010011	 0.020943	-0.401579
				CHANNELS 3 Zrotation Xrotation Yrotation
				JOINT LeftToes
				{
					OFFSET	 0.001443	-0.110538	-0.064447
					CHANNELS 3 Zrotation Xrotation Yrotation
					End Site
					{
						OFFSET	 0.001443	-0.110538	-0.064447
					}
				}
			}
		}
	}
	JOINT RightUpperLeg
	{
		OFFSET	-0.077122	 0.004909	-0.039702
		CHANNELS 3 Zrotation Xrotation Yrotation
		JOINT RightLowerLeg
		{
			OFFSET	 0.019635	 0.006634	-0.342479
			CHANNELS 3 Zrotation Xrotation Yrotation
			JOINT RightFoot
			{
				OFFSET	 0.010012	 0.020943	-0.401580
				CHANNELS 3 Zrotation Xrotation Yrotation
				JOINT RightToes
				{
					OFFSET	-0.001442	-0.110538	-0.064447
					CHANNELS 3 Zrotation Xrotation Yrotation
					End Site
					{
						OFFSET	-0.001442	-0.110538	-0.064447
					}
				}
			}
		}
	}
}
MOTION
Frames:    5
Frame Time: 0.03333334
-0.000754	-0.006049	 0.894126	 7.534017	-1.835726	-3.881333	 4.042486	 6.800439	 0.948858	 0.000000	 0.000000	 0.000000	 0.000000	 0.000000	 0.000000	-0.425952	-1.281549	 6.091392	 1.048004	 1.508677	 0.978013	 0.000000	 0.000000	 0.000000	 0.000000	 0.000000	 0.000000	 0.000000	 0.000000	 0.000000	 11.004200	 5.133487	 74.623770	-17.050380	-7.233522	 5.284920	 4.673547	 48.216440	 1.455323	 0.000000	 0.000000	 0.000000	 0.000000	 0.000000	 0.000000	 0.000000	 0.000000	 0.000000	 0.000000	 0.000000	 0.000000	 0.000000	 0.000000	 0.000000	 0.000000	 0.000000	 0.000000	 0.000000	 0.000000	 0.000000	 0.000000	 0.000000	 0.000000	 0.000000	 0.000000	 0.000000	 0.000000	 0.000000	 0.000000	 0.000000	 0.000000	 0.000000	 0.000000	 0.000000	 0.000000	 0.000000	 0.000000	 0.000000	 0.000000	 0.000000	 0.000000	 0.000000	 0.000000	 0.000000	 0.000000	 0.000000	 0.000000	-5.980900	 2.345365	-75.091820	 15.282910	 6.517596	-7.937651	 0.698176	 41.791400	 11.091940	 0.000000	 0.000000	 0.000000	 0.000000	 0.000000	 0.000000	 0.000000	 0.000000	 0.000000	 0.000000	 0.000000	 0.000000	 0.000000	 0.000000	 0.000000	 0.000000	 0.000000	 0.000000	 0.000000	 0.000000	 0.000000	 0.000000	 0.000000	 0.000000	 0.000000	 0.000000	 0.000000	 0.000000	 0.000000	 0.000000	 0.000000	 0.000000	 0.000000	 0.000000	 0.000000	 0.000000	 0.000000	 0.000000	 0.000000	 0.000000	 0.000000	 0.000000	 0.000000	 0.000000	 0.000000	-0.522665	-2.178099	-0.770403	-0.032587	 15.327010	-3.509021	 6.581644	-17.254970	-0.771315	 0.000000	 0.000000	 0.000000	 0.144184	 1.735818	 6.164841	 0.313308	 6.649233	-6.465690	-23.166160	-9.197726	 1.547361	 0.000000	 0.000000	 0.000000
-0.001067	-0.005617	 0.895153	 7.136473	-1.192623	-4.166281	 4.035789	 6.569788	 1.167918	 0.000000	 0.000000	 0.000000	 0.000000	 0.000000	 0.000000	-0.387368	-1.502706	 5.866786	 0.325132	 1.509127	 1.048720	 0.000000	 0.000000	 0.000000	 0.000000	 0.000000	 0.000000	 0.000000	 0.000000	 0.000000	 10.048770	 4.640666	 74.121610	-18.382820	-4.959856	 6.186791	 6.285837	 44.755290	 1.808251	 0.000000	 0.000000	 0.000000	 0.000000	 0.000000	 0.000000	 0.000000	 0.000000	 0.000000	 0.000000	 0.000000	 0.000000	 0.000000	 0.000000	 0.000000	 0.000000	 0.000000	 0.000000	 0.000000	 0.000000	 0.000000	 0.000000	 0.000000	 0.000000	 0.000000	 0.000000	 0.000000	 0.000000	 0.000000	 0.000000	 0.000000	 0.000000	 0.000000	 0.000000	 0.000000	 0.000000	 0.000000	 0.000000	 0.000000	 0.000000	 0.000000	 0.000000	 0.000000	 0.000000	 0.000000	 0.000000	 0.000000	 0.000000	-5.765350	 2.222920	-75.496030	 14.708180	 3.514968	-7.094621	 0.762707	 45.779070	 10.936180	 0.000000	 0.000000	 0.000000	 0.000000	 0.000000	 0.000000	 0.000000	 0.000000	 0.000000	 0.000000	 0.000000	 0.000000	 0.000000	 0.000000	 0.000000	 0.000000	 0.000000	 0.000000	 0.000000	 0.000000	 0.000000	 0.000000	 0.000000	 0.000000	 0.000000	 0.000000	 0.000000	 0.000000	 0.000000	 0.000000	 0.000000	 0.000000	 0.000000	 0.000000	 0.000000	 0.000000	 0.000000	 0.000000	 0.000000	 0.000000	 0.000000	 0.000000	 0.000000	 0.000000	 0.000000	-0.526494	-2.322018	-0.822757	-0.137070	 15.007350	-3.055139	 7.006408	-16.910760	-0.788285	 0.000000	 0.000000	 0.000000	 0.162754	 0.857640	 6.350609	 0.310167	 7.085777	-6.255336	-22.600610	-9.376300	 1.518817	 0.000000	 0.000000	 0.000000
-0.000716	-0.005651	 0.895363	 6.789718	-1.009301	-4.291917	 4.186934	 6.464669	 1.189123	 0.000000	 0.000000	 0.000000	 0.000000	 0.000000	 0.000000	-0.382196	-1.481177	 5.756400	 0.471684	 1.505964	 1.012653	 0.000000	 0.000000	 0.000000	 0.000000	 0.000000	 0.000000	 0.000000	 0.000000	 0.000000	 9.912624	 4.555707	 73.702120	-18.538000	-3.642032	 6.599977	 6.253367	 43.711700	 1.822856	 0.000000	 0.000000	 0.000000	 0.000000	 0.000000	 0.000000	 0.000000	 0.000000	 0.000000	 0.000000	 0.000000	 0.000000	 0.000000	 0.000000	 0.000000	 0.000000	 0.000000	 0.000000	 0.000000	 0.000000	 0.000000	 0.000000	 0.000000	 0.000000	 0.000000	 0.000000	 0.000000	 0.000000	 0.000000	 0.000000	 0.000000	 0.000000	 0.000000	 0.000000	 0.000000	 0.000000	 0.000000	 0.000000	 0.000000	 0.000000	 0.000000	 0.000000	 0.000000	 0.000000	 0.000000	 0.000000	 0.000000	 0.000000	-6.307701	 2.456415	-75.535150	 14.850750	 2.915624	-7.026550	 1.308287	 45.804650	 9.953130	 0.000000	 0.000000	 0.000000	 0.000000	 0.000000	 0.000000	 0.000000	 0.000000	 0.000000	 0.000000	 0.000000	 0.000000	 0.000000	 0.000000	 0.000000	 0.000000	 0.000000	 0.000000	 0.000000	 0.000000	 0.000000	 0.000000	 0.000000	 0.000000	 0.000000	 0.000000	 0.000000	 0.000000	 0.000000	 0.000000	 0.000000	 0.000000	 0.000000	 0.000000	 0.000000	 0.000000	 0.000000	 0.000000	 0.000000	 0.000000	 0.000000	 0.000000	 0.000000	 0.000000	 0.000000	-0.527572	-2.173349	-0.762123	-0.140082	 14.987170	-3.012951	 6.964717	-16.953080	-0.786819	 0.000000	 0.000000	 0.000000	 0.172826	 0.621562	 6.503719	 0.310641	 7.189754	-6.282048	-22.496020	-9.682161	 1.521019	 0.000000	 0.000000	 0.000000
-0.000195	-0.005729	 0.895351	 6.367201	-0.898324	-4.381856	 4.377151	 6.396639	 1.159539	 0.000000	 0.000000	 0.000000	 0.000000	 0.000000	 0.000000	-0.378387	-1.438911	 5.637074	 0.925571	 1.501184	 0.924590	 0.000000	 0.000000	 0.000000	 0.000000	 0.000000	 0.000000	 0.000000	 0.000000	 0.000000	 10.022910	 4.587555	 73.206310	-18.314560	-2.425265	 6.881625	 5.527996	 43.400480	 1.747335	 0.000000	 0.000000	 0.000000	 0.000000	 0.000000	 0.000000	 0.000000	 0.000000	 0.000000	 0.000000	 0.000000	 0.000000	 0.000000	 0.000000	 0.000000	 0.000000	 0.000000	 0.000000	 0.000000	 0.000000	 0.000000	 0.000000	 0.000000	 0.000000	 0.000000	 0.000000	 0.000000	 0.000000	 0.000000	 0.000000	 0.000000	 0.000000	 0.000000	 0.000000	 0.000000	 0.000000	 0.000000	 0.000000	 0.000000	 0.000000	 0.000000	 0.000000	 0.000000	 0.000000	 0.000000	 0.000000	 0.000000	 0.000000	-7.254353	 2.872291	-75.456800	 15.362540	 2.922267	-7.217373	 2.063344	 44.473470	 8.439979	 0.000000	 0.000000	 0.000000	 0.000000	 0.000000	 0.000000	 0.000000	 0.000000	 0.000000	 0.000000	 0.000000	 0.000000	 0.000000	 0.000000	 0.000000	 0.000000	 0.000000	 0.000000	 0.000000	 0.000000	 0.000000	 0.000000	 0.000000	 0.000000	 0.000000	 0.000000	 0.000000	 0.000000	 0.000000	 0.000000	 0.000000	 0.000000	 0.000000	 0.000000	 0.000000	 0.000000	 0.000000	 0.000000	 0.000000	 0.000000	 0.000000	 0.000000	 0.000000	 0.000000	 0.000000	-0.531193	-1.909769	-0.691828	-0.122931	 14.997970	-3.033411	 6.679801	-17.163430	-0.774964	 0.000000	 0.000000	 0.000000	 0.184568	 0.465258	 6.686459	 0.319401	 7.277749	-6.437736	-22.422700	-10.171920	 1.530141	 0.000000	 0.000000	 0.000000
 0.000103	-0.006028	 0.895216	 5.886630	-0.903296	-4.430810	 4.571845	 6.435197	 1.168155	 0.000000	 0.000000	 0.000000	 0.000000	 0.000000	 0.000000	-0.374299	-1.396940	 5.516526	 1.345942	 1.499215	 0.756271	 0.000000	 0.000000	 0.000000	 0.000000	 0.000000	 0.000000	 0.000000	 0.000000	 0.000000	 10.119330	 4.620282	 72.569200	-17.742790	-1.815135	 6.882977	 4.632043	 43.920250	 1.210651	 0.000000	 0.000000	 0.000000	 0.000000	 0.000000	 0.000000	 0.000000	 0.000000	 0.000000	 0.000000	 0.000000	 0.000000	 0.000000	 0.000000	 0.000000	 0.000000	 0.000000	 0.000000	 0.000000	 0.000000	 0.000000	 0.000000	 0.000000	 0.000000	 0.000000	 0.000000	 0.000000	 0.000000	 0.000000	 0.000000	 0.000000	 0.000000	 0.000000	 0.000000	 0.000000	 0.000000	 0.000000	 0.000000	 0.000000	 0.000000	 0.000000	 0.000000	 0.000000	 0.000000	 0.000000	 0.000000	 0.000000	 0.000000	-8.109902	 3.255280	-75.260820	 16.164660	 3.293589	-7.600612	 2.704724	 42.532560	 6.966743	 0.000000	 0.000000	 0.000000	 0.000000	 0.000000	 0.000000	 0.000000	 0.000000	 0.000000	 0.000000	 0.000000	 0.000000	 0.000000	 0.000000	 0.000000	 0.000000	 0.000000	 0.000000	 0.000000	 0.000000	 0.000000	 0.000000	 0.000000	 0.000000	 0.000000	 0.000000	 0.000000	 0.000000	 0.000000	 0.000000	 0.000000	 0.000000	 0.000000	 0.000000	 0.000000	 0.000000	 0.000000	 0.000000	 0.000000	 0.000000	 0.000000	 0.000000	 0.000000	 0.000000	 0.000000	-0.562243	-1.491601	-0.746711	-0.128167	 14.852820	-2.718158	 6.878311	-17.334490	-0.790575	 0.000000	 0.000000	 0.000000	 0.177394	 0.488506	 6.858488	 0.346149	 7.297713	-6.621261	-22.457220	-10.428890	 1.539266	 0.000000	 0.000000	 0.000000
